<?xml version="1.0" encoding="utf-8"?>
<!-- Generator: Adobe Illustrator 16.0.0, SVG Export Plug-In . SVG Version: 6.00 Build 0)  -->
<!DOCTYPE svg PUBLIC "-//W3C//DTD SVG 1.1//EN" "http://www.w3.org/Graphics/SVG/1.1/DTD/svg11.dtd">
<svg version="1.1" id="Layer_1" xmlns="http://www.w3.org/2000/svg" xmlns:xlink="http://www.w3.org/1999/xlink" x="0px" y="0px"
	 width="512px" height="512px" viewBox="0 0 512 512" enable-background="new 0 0 512 512" xml:space="preserve">
<g id="Grid">
	<rect x="0" fill="none" stroke="#A9CCDB" stroke-miterlimit="10" width="512" height="512"/>
	<line fill="none" stroke="#A9CCDB" stroke-miterlimit="10" x1="0" y1="32" x2="512" y2="32"/>
	<line fill="none" stroke="#A9CCDB" stroke-miterlimit="10" x1="0" y1="64" x2="512" y2="64"/>
	<line fill="none" stroke="#A9CCDB" stroke-miterlimit="10" x1="0" y1="96" x2="512" y2="96"/>
	<line fill="none" stroke="#A9CCDB" stroke-miterlimit="10" x1="0" y1="128" x2="512" y2="128"/>
	<line fill="none" stroke="#A9CCDB" stroke-miterlimit="10" x1="0" y1="160" x2="512" y2="160"/>
	<line fill="none" stroke="#A9CCDB" stroke-miterlimit="10" x1="0" y1="192" x2="512" y2="192"/>
	<line fill="none" stroke="#A9CCDB" stroke-miterlimit="10" x1="0" y1="224" x2="512" y2="224"/>
	<line fill="none" stroke="#A9CCDB" stroke-miterlimit="10" x1="0" y1="256" x2="512" y2="256"/>
	<line fill="none" stroke="#A9CCDB" stroke-miterlimit="10" x1="0" y1="288" x2="512" y2="288"/>
	<line fill="none" stroke="#A9CCDB" stroke-miterlimit="10" x1="0" y1="320" x2="512" y2="320"/>
	<line fill="none" stroke="#A9CCDB" stroke-miterlimit="10" x1="0" y1="352" x2="512" y2="352"/>
	<line fill="none" stroke="#A9CCDB" stroke-miterlimit="10" x1="0" y1="384" x2="512" y2="384"/>
	<line fill="none" stroke="#A9CCDB" stroke-miterlimit="10" x1="0" y1="416" x2="512" y2="416"/>
	<line fill="none" stroke="#FF0000" stroke-miterlimit="10" x1="0" y1="448" x2="512" y2="448"/>
	<line fill="none" stroke="#A9CCDB" stroke-miterlimit="10" x1="0" y1="480" x2="512" y2="480"/>
	<line fill="none" stroke="#A9CCDB" stroke-miterlimit="10" x1="32" y1="0" x2="32" y2="512"/>
	<line fill="none" stroke="#A9CCDB" stroke-miterlimit="10" x1="64" y1="0" x2="64" y2="512"/>
	<line fill="none" stroke="#A9CCDB" stroke-miterlimit="10" x1="96" y1="0" x2="96" y2="512"/>
	<line fill="none" stroke="#A9CCDB" stroke-miterlimit="10" x1="128" y1="0" x2="128" y2="512"/>
	<line fill="none" stroke="#A9CCDB" stroke-miterlimit="10" x1="160" y1="0" x2="160" y2="512"/>
	<line fill="none" stroke="#A9CCDB" stroke-miterlimit="10" x1="192" y1="0" x2="192" y2="512"/>
	<line fill="none" stroke="#A9CCDB" stroke-miterlimit="10" x1="224" y1="0" x2="224" y2="512"/>
	<line fill="none" stroke="#A9CCDB" stroke-miterlimit="10" x1="256" y1="0" x2="256" y2="512"/>
	<line fill="none" stroke="#A9CCDB" stroke-miterlimit="10" x1="288" y1="0" x2="288" y2="512"/>
	<line fill="none" stroke="#A9CCDB" stroke-miterlimit="10" x1="320" y1="0" x2="320" y2="512"/>
	<line fill="none" stroke="#A9CCDB" stroke-miterlimit="10" x1="352" y1="0" x2="352" y2="512"/>
	<line fill="none" stroke="#A9CCDB" stroke-miterlimit="10" x1="384" y1="0" x2="384" y2="512"/>
	<line fill="none" stroke="#A9CCDB" stroke-miterlimit="10" x1="416" y1="0" x2="416" y2="512"/>
	<line fill="none" stroke="#A9CCDB" stroke-miterlimit="10" x1="448" y1="0" x2="448" y2="512"/>
	<line fill="none" stroke="#A9CCDB" stroke-miterlimit="10" x1="480" y1="0" x2="480" y2="512"/>
</g>
<g id="book">
	<g>
		<path fill-rule="evenodd" clip-rule="evenodd" d="M468.506,374.433c-3.883-89.279,0.547-196.572-5.281-282.959
			c-0.471-7.16-3.005-13.518-3.509-19.34c-0.309-3.559,1.901-6.25,1.755-8.779c-0.774-13.708-9.895-9.207-21.083-8.785
			c-16.107,0.596-24.128,1.944-42.189,0c-9.033-0.98-2.318,3.558-10.539,0c-4.463-1.944-3.412-7.138-3.521-7.029
			c0.217-0.217,40.478,1.754,43.938,1.754c17.309,0,42.519,2.659,42.184-5.281c-0.206-5.036-13.215-1.797-17.569-1.749
			c-18.977,0.211-30.637-0.433-45.703,0c-7.891,0.222-19.146,2.914-22.85,1.749c-3.867-1.202-6.147-5.909-7.03-7.029
			c-4.143-5.248-6.012-5.188-3.509-7.019c5.107-3.758,43.207,0.434,50.974,0c14.286-0.817,32.456-1.246,31.622-10.55
			c-0.861-9.743-7.598,0.027-15.808-5.275c-2.2-1.419-0.775-4.869-1.767-7.03c-5.193-11.379-5.54-5.827-21.089-5.27
			c-1.153,0.038-2.361-0.119-3.51,0c-71.31,7.436-148.153,5.351-219.686,10.539c-10.572,0.769-62.785-1.944-56.237,12.31
			c3.867,8.432,44.972,2.632,65.022,1.755c13.073-0.58,29.678,0.487,40.423,0c28.579-1.294,66.896-4.019,98.415-3.515
			c-31.189-0.503,14.872-1.446,14.06,1.76c-0.075,0.303-17.07,0.271-15.814,0c-26.574,5.773-69.057,1.337-93.151,3.509
			c-4.192,0.379-9.218,2.924-14.049,3.521c-26.071,3.207-68.629-1.235-66.788,7.024c1.452,6.559,6.835,4.593,17.569,5.27
			c30.512,1.955,67.199,0.942,86.122-3.509c1.933-0.455,2.438-3.266,3.509-3.52c7.788-1.787,16.931-4.625,19.334,1.76
			c-0.075-0.211-6.498-0.14-7.029,0c-10.42,2.908-0.216,14.52-5.274,17.58c-2.719,1.652-17.867,0-28.119,0
			c-22.914,0-52.853,2.821-68.542,1.754c-9.218-0.628-42.016-8.633-26.364,7.035c5.318,5.308,7.609,3.077,8.795,3.51
			c2.351,0.866,6.006,1.256,10.54,1.76c22.281,2.459,48.525,3.51,68.542,3.51c7.306,0,38.106-3.244,42.178,1.76
			c1.928,2.361-4.246,25.519-5.274,42.184c-2.481,40.483,0,86.668,0,123.025c0,24.333-0.78,45.867,0,56.238
			c0.411,5.329,2.892,10.566,3.52,15.819c0.916,7.707-2.729,13.432,1.755,15.813c9.283,4.918,22.681-12.748,26.364-15.813
			c6.152-5.113,21.729-18.046,26.363-17.574c1.625,0.162,9.608,7.95,12.306,10.539c5.248,5.053,8.633,9.071,12.299,12.305
			c-0.688-0.602,20.705,20.851,28.119,19.328c13.323-2.718,14.086-39.351,14.06-56.236c-0.017-13.372-5.746-41.084-7.03-66.783
			c-1.435-28.909-0.493-45.926-1.76-73.817c-0.412-9.169-8.367-63.685-7.019-65.027c3.535-3.542,52.272,1.213,52.717,1.754
			c0.531,0.65-1.051,8.606-1.754,15.825c-3.955,40.569-3.521,78.258-3.521,119.504c0,48.98-0.075,85.916,1.767,128.295
			c0.779,18.083,1.755,72.333,1.755,101.941c0,9.018,2.556,30.832-1.755,35.148c-2.963,2.957-15.581,1.646-24.61,1.761
			c-70.59,0.833-137.431-4.696-202.117-1.761c-3.574,0.157-24.257,5.205-28.118,0c-1.885-2.556,3.054-4.62,3.52-5.274
			c3.087-4.284,8.048-13.94,8.785-17.575c2.903-14.313-1.452-33.09-3.509-49.207c-4.517-35.316-8.286-61.106-12.305-94.912
			c-1.869-15.705-3.602-32.008-5.275-49.202c-5.124-52.793-6.629-124.921-17.58-170.479c-0.65-2.746-3.369-22.584-8.785-19.34
			c-2.957,1.782-1.338,27.767-1.755,36.914c-3.997,88.109,2.416,188.047,14.06,267.139c2.61,17.737,6.12,33.865,7.03,47.454
			c1.224,18.262-2.464,35.944,1.754,45.692c1.733,3.992,4.658,4.571,3.521,7.03c0.628-1.349-8.411,3.357-8.785,3.521
			c-20.764,8.893-37.607,14.113-68.542,12.299c-6.646-0.391-23.548-1.121-26.364-5.274c-2.491-3.656,1.754-8.898,1.754-15.81
			c-0.011-15.473-4.268-30.003,0-33.394c1.094-0.872,5.86,1.387,7.03,1.75c12.066,3.73,26.938,6.785,36.903,3.52
			c4.338-1.424,10.182-3.829,10.55-7.029c1.354-11.698-19.594-10.188-31.633-12.305c-5.21-0.91-23.5-5.129-24.604-7.03
			c-1.896-3.271-0.298-12.013,0-12.304c1.993-1.994,13.843,4.175,24.604,1.76c6.287-1.414,14.562-6.32,14.059-12.305
			c-0.417-4.967-9.012-8.573-15.819-10.545c-7.544-2.188-19.042,1.836-22.844-3.515c-1.993-2.8,1.63-15.625,1.754-17.574
			c0.043-0.602-2.881-18.209,0-21.095c3-3,7.501,3.087,17.574,1.76c8.053-1.05,11.194-1.516,12.299-8.784
			c2.448-15.993-25.958-11.352-29.874-19.334c-2.258-4.604-2.167-16.827,0-19.329c0.704-0.829,7.539,0,8.79,0
			c9.527,0,14.098-1.798,17.575-5.27c7.262-7.269-13.621-13.221-17.575-14.064c-5.106-1.089-6.873,1.369-8.79-1.761
			c-1.809-2.946-1.971-22.535,0-24.604c2.859-2.995,5.118,3.477,17.574,1.76c17.314-2.394,15.435-14.309,1.76-19.334
			c-4.571-1.679-18.371,1.116-21.089-1.755c-1.289-1.359,0.66-5.551,0-12.31c-1.69-17.195-1.343-7.111,12.299-12.299
			c3.32-1.268,6.905-5.151,7.03-8.785c0.396-11.292-18.007-6.298-22.849-12.31c-2.415-3-4.555-32.3-3.51-33.388
			c2.405-2.535,7.263,2.307,15.814,1.754c24.089-1.538,11.119-14.07,1.76-17.568c-5.096-1.907-16.176,0.233-19.34-3.521
			c-2.892-3.439-2.881-30.946-3.504-38.658c-0.341-4.225-1.029-23.288-1.765-29.879c-0.84-7.561-3.959-12.613,3.515-7.03
			c4.403,3.282,13.756,7.875,17.575,8.79c15.023,3.596,62.568,2.405,58.003-12.304c-2.893-9.326-30.908-1.344-49.208-3.515
			c-6.732-0.801-21.057-3.672-21.095-8.79c-0.054-6.407,33.675-12.109,35.148-12.305c17.504-2.307,31.628,1.744,35.154-7.024
			c1.527-3.812,0.417-9.483,0-10.549c-6.504-16.74-59.222-0.775-65.027,1.754c-6.954,3.039-9.147,7.674-15.825,8.795
			c-4.685,0.786-6.098-3.385-8.785,0c-0.46,0.58-2.702,16.778-3.515,24.604c-4.229,40.813,1.977,96.753,3.515,131.81
			c1.755,39.823,0.076,68.429,1.76,107.211c0.98,22.605,3.548,44.913,1.75,66.782c-2.545,31.136-4.268,70.801-1.75,105.445
			c0.98,13.458,4.538,35.116,8.785,40.429c0.498,0.606,4.636,1.322,5.269,1.761c2.08,1.413,2.221,2.085,5.275,3.504
			c11.471,5.345,25.757,7.81,38.663,8.79c23.9,1.813,39.687-1.62,52.723-7.024c2.724-1.127,7.484-1.776,10.55-3.521
			c4.051-2.291,6.883-6.824,8.784-7.029c1.874-0.19,3.727,2.789,5.275,3.52c5.838,2.719,18.766,3.108,24.598,3.51
			c37.039,2.524,83.929-0.255,128.305,1.755c16.031,0.731,32.707,2.876,47.448,3.521c17.986,0.79,34.341-1.219,50.974-1.755
			c9.58-0.319,17.525,3.087,24.604-1.766c0.851-0.579,8.129-11.237,8.79-14.059c3.417-14.488,0-31.933,0-56.238
			C468.506,414.985,469.296,392.554,468.506,374.433z M384.139,309.399c-5.812-5.41-13.745-14.136-19.329-19.323
			c-2.216-2.068-6.927-4.999-12.299-10.55c-3.699-3.818-6.424-10.247-10.551-10.545c-5.995-0.428-16.566,11.742-19.328,14.054
			c-1.284,1.078-4.918,6.076-7.035,7.041c-0.846,0.374-2.784-0.563-3.51,0c-1.868,1.419-4.451,8.773-7.035,5.27
			c-3.276-4.463,0-62.222,0-75.577c0-27.41-0.629-61.356-1.755-86.111c-1.061-23.375-0.243-42.996-1.76-63.273
			c-0.26-3.438-1.744-4.836-1.755-7.029c-0.021-6.19,1.695-4.338-1.761-10.544c-0.184-0.326-3.298-3.504-1.749-5.27
			c2.72-3.125,12.972,0.72,19.324,0c7.268-0.839,8.99-3.223,15.818-3.526c0.082,0-0.08-1.652,0-1.749
			c1.052-1.311,1.978,1.771,1.761,1.749c3.943,0.233,27.317,1.728,31.634,5.281c1.104,0.904,5.227,9.083,7.024,15.819
			c0.758,2.806-0.661,7.42,0,10.54c0.622,2.897,3.217,4.852,3.525,7.035c1.982,14.049,0.634,31.991,1.749,47.448
			c3.271,45.054,2.703,93.634,8.796,137.091c0.66,4.711,2.849,12.58,3.509,21.083C390.074,296.77,392.176,316.884,384.139,309.399z
			 M78.337,98.503c-9.132,5.242-3.353,10.615,5.274,12.305c8.443,1.646,18.327,0.189,19.329-5.281
			C104.478,97.22,84.949,94.707,78.337,98.503z"/>
	</g>
</g>
</svg>
