<?xml version="1.0" encoding="iso-8859-1"?>
<!-- Generator: Adobe Illustrator 15.0.1, SVG Export Plug-In . SVG Version: 6.00 Build 0)  -->
<!DOCTYPE svg PUBLIC "-//W3C//DTD SVG 1.1//EN" "http://www.w3.org/Graphics/SVG/1.1/DTD/svg11.dtd">
<svg version="1.1" id="Layer_1" xmlns="http://www.w3.org/2000/svg" xmlns:xlink="http://www.w3.org/1999/xlink" x="0px" y="0px"
	 width="512px" height="512px" viewBox="0 0 512 512" style="enable-background:new 0 0 512 512;" xml:space="preserve">
<g id="Grid">
	<line style="fill:none;stroke:#A9CCDB;stroke-miterlimit:10;" x1="0" y1="32" x2="512" y2="32"/>
	<line style="fill:none;stroke:#A9CCDB;stroke-miterlimit:10;" x1="0" y1="64" x2="512" y2="64"/>
	<line style="fill:none;stroke:#A9CCDB;stroke-miterlimit:10;" x1="0" y1="96" x2="512" y2="96"/>
	<line style="fill:none;stroke:#A9CCDB;stroke-miterlimit:10;" x1="0" y1="128" x2="512" y2="128"/>
	<line style="fill:none;stroke:#A9CCDB;stroke-miterlimit:10;" x1="0" y1="160" x2="512" y2="160"/>
	<line style="fill:none;stroke:#A9CCDB;stroke-miterlimit:10;" x1="0" y1="192" x2="512" y2="192"/>
	<line style="fill:none;stroke:#A9CCDB;stroke-miterlimit:10;" x1="0" y1="224" x2="512" y2="224"/>
	<line style="fill:none;stroke:#A9CCDB;stroke-miterlimit:10;" x1="0" y1="256" x2="512" y2="256"/>
	<line style="fill:none;stroke:#A9CCDB;stroke-miterlimit:10;" x1="0" y1="288" x2="512" y2="288"/>
	<line style="fill:none;stroke:#A9CCDB;stroke-miterlimit:10;" x1="0" y1="320" x2="512" y2="320"/>
	<line style="fill:none;stroke:#A9CCDB;stroke-miterlimit:10;" x1="0" y1="352" x2="512" y2="352"/>
	<line style="fill:none;stroke:#A9CCDB;stroke-miterlimit:10;" x1="0" y1="384" x2="512" y2="384"/>
	<line style="fill:none;stroke:#A9CCDB;stroke-miterlimit:10;" x1="0" y1="416" x2="512" y2="416"/>
	<line style="fill:none;stroke:#FF0000;stroke-miterlimit:10;" x1="0" y1="448" x2="512" y2="448"/>
	<line style="fill:none;stroke:#A9CCDB;stroke-miterlimit:10;" x1="0" y1="480" x2="512" y2="480"/>
	<line style="fill:none;stroke:#A9CCDB;stroke-miterlimit:10;" x1="32" y1="0" x2="32" y2="512"/>
	<line style="fill:none;stroke:#A9CCDB;stroke-miterlimit:10;" x1="64" y1="0" x2="64" y2="512"/>
	<line style="fill:none;stroke:#A9CCDB;stroke-miterlimit:10;" x1="96" y1="0" x2="96" y2="512"/>
	<line style="fill:none;stroke:#A9CCDB;stroke-miterlimit:10;" x1="128" y1="0" x2="128" y2="512"/>
	<line style="fill:none;stroke:#A9CCDB;stroke-miterlimit:10;" x1="160" y1="0" x2="160" y2="512"/>
	<line style="fill:none;stroke:#A9CCDB;stroke-miterlimit:10;" x1="192" y1="0" x2="192" y2="512"/>
	<line style="fill:none;stroke:#A9CCDB;stroke-miterlimit:10;" x1="224" y1="0" x2="224" y2="512"/>
	<line style="fill:none;stroke:#A9CCDB;stroke-miterlimit:10;" x1="256" y1="0" x2="256" y2="512"/>
	<line style="fill:none;stroke:#A9CCDB;stroke-miterlimit:10;" x1="288" y1="0" x2="288" y2="512"/>
	<line style="fill:none;stroke:#A9CCDB;stroke-miterlimit:10;" x1="320" y1="0" x2="320" y2="512"/>
	<line style="fill:none;stroke:#A9CCDB;stroke-miterlimit:10;" x1="352" y1="0" x2="352" y2="512"/>
	<line style="fill:none;stroke:#A9CCDB;stroke-miterlimit:10;" x1="384" y1="0" x2="384" y2="512"/>
	<line style="fill:none;stroke:#A9CCDB;stroke-miterlimit:10;" x1="416" y1="0" x2="416" y2="512"/>
	<line style="fill:none;stroke:#A9CCDB;stroke-miterlimit:10;" x1="448" y1="0" x2="448" y2="512"/>
	<line style="fill:none;stroke:#A9CCDB;stroke-miterlimit:10;" x1="480" y1="0" x2="480" y2="512"/>
</g>
<g id="certificate">
	<g>
		<path d="M507.969,182.639c-0.912-17.067,0.627-33.721-3.084-41.627c-3.141-6.686-4.02-7.465-9.251-6.163
			c-4.613,1.154-7.973-10.087-9.246-12.339c-2.58-4.519-5.154-7.911-7.716-10.791c-8.153-9.208-13.189-20.45-20.046-30.841
			c-5.075-7.702-11.086-16.346-16.958-23.126c-7.807-9.022-15.471-16.972-21.586-18.506c-8.994-2.253-22.308,0-32.381,0
			c-13.403,0-29.953,1.06-35.46,1.544c-49.81,4.419-109.899,2.376-174.233,4.628c-41.646,1.449-80.247,6.509-123.361,7.707
			c-15.893,0.446-35.341-1.235-41.627,3.078c-0.309,0.219-2.723,4.229-4.628,7.717C2.99,73.851,4.497,84.137,3.77,99.384
			C1.342,150.32,6.858,213.199,6.858,253.572c0,31.398-0.674,69.971-3.088,103.307c-0.888,12.307-2.779,32.396-1.539,52.432
			c0.366,5.879,2.884,14.85,3.079,23.116c0.266,10.929-2.817,20.336,0,24.68c2.395,3.657,17.999,6.784,24.674,7.696
			c10.111,1.396,21.714,1.33,30.841,1.555c51.391,1.221,82.085-1.555,127.974-1.555c22.641,0,44.635-3.298,63.213-3.079
			c20.786,0.258,38.034,4.505,55.51,6.178c9.213,0.87,18.925,0.632,29.297,1.54c30.698,2.688,56.118,1.549,90.976,3.083
			c16.715,0.735,54.1,3.035,61.673-1.544c6.804-4.114,7.669-19.805,9.256-33.926c1.615-14.454,3.508-29.478,4.623-40.088
			C510.772,326.68,511.87,255.554,507.969,182.639z M421.621,113.259c0.96-6.966,3.084-21.567,3.084-32.381
			c0-0.685-0.428-4.139,0-4.624c0.642-0.712,5.991,0.804,7.712,4.624c1.691,3.744,4.756,7.944,7.711,12.334
			c5.022,7.475,11.347,20.042,12.33,21.591c1.521,2.376,6.553,8.001,10.795,13.874c1.364,1.896,2.5,3.981,4.628,7.716
			c1.437,2.514,4.462,6.515,4.623,6.163c-0.884,1.957-9.394,4.096-13.878,4.623c0.161-0.02-42.079,2.632-44.711,0
			C413.677,146.941,421.194,116.395,421.621,113.259z M487.928,355.34c-1.063,10.635-3.621,20.223-4.633,29.288
			c-1.996,18.036-3.079,25.067-3.079,46.27c0,4.104,1.439,13.688,0,15.403c-2.564,3.079-19.946,1.812-29.292,1.555
			c-16.593-0.472-19.152-0.907-27.753-1.555c-21.153-1.573-42.573-1.149-58.595-1.535c-42.729-1.021-72.008-7.996-111.016-9.251
			c-14.763-0.475-36.529,1.54-58.59,1.54c-20.488,0-41.09,0.418-58.594,1.539c-21.41,1.378-57.986,1.796-86.352,3.089
			c-6.813,0.313-22.351,3.432-26.208,0c-0.894-0.783-2.518-11.204-3.088-18.507c-1.53-19.971,0.29-44.83,1.544-63.208
			c3.231-47.253,4.125-121.03,1.544-164.985c-2.048-34.984-4.509-64.752-4.628-103.31c0-0.917-0.637-18.236,1.54-20.046
			c1.383-1.141,26.755,1.549,43.176,1.549c46.949,0,85.107-6.168,127.97-6.168c51.676,0,88.821,1.492,129.527-1.549
			c14.115-1.055,28.108-1.967,43.176-3.079c-0.186,0.01,0.591-1.455,1.52-1.54c0.862-0.004,39.56-1.704,41.651-0.004
			c2.623,2.134-2.617,21.909-3.088,24.674c-3.568,20.997-4.971,31.92-10.795,50.883c-2.989,9.741-10.806,24.266,0,32.372
			c3.383,2.537,8.182,2.199,12.339,3.083c9.09,1.943,17.186,0.423,27.753,0c21.558-0.859,42.957,5.15,50.878-9.246
			c0.356-0.642,1.046-12.473,4.633-10.795c0.632,0.299,0,26.864,0,32.381v103.307C489.467,312.957,489.866,335.936,487.928,355.34z
			 M319.86,165.686c0.295-8.629-7.117-7.84-10.801-10.795c-5.06-4.077-7.439-8.601-12.329-9.256
			c-5.649-0.746-11.36,4.613-18.508,4.628c-4.005,0.014-9.084-4.481-13.873-4.628c-13.427-0.376-21.162,11.859-26.212,10.79
			c-2.97-0.622-4.937-7.911-6.163-9.246c-4.053-4.381-11.289-7.118-18.502-4.623c-2.433,0.841-5.606,1.625-7.711,3.079
			c-2.219,1.544-7.365,13.095-12.344,12.339c1.107,0.166-2.87-3.426-4.618-6.167c-3.188-5.003-1.791-5.73-6.172-7.707
			c-0.532-0.252-0.898-2.718-1.544-3.088c-8.04-4.604-12.287-3.074-20.042,0c-8.89,3.53-9.018,5.806-12.339-1.54
			c-0.138-0.323-2.732-1.216-3.069-1.539c-1.397-1.288-4.376-5.27-7.721-6.168c-11.208-3.04-21.875,4.481-24.669,3.084
			c-1.587-0.803-0.1-5.711-1.544-9.256c-3.682-9.065-12.449-10.178-20.042-9.246C76.41,118.204,59.1,136.569,62.36,154.891
			c1.074,6.001,11.707,15.65,18.507,9.255c3.592-3.388-0.162-6.984,0-6.172c-1.896-9.47-0.361-13.166,4.623-18.502
			c10.244-10.952,12.415-2.937,10.8,12.335c-0.846,7.954-5.873,13.39-4.633,18.507c0.908,3.715,3.274,9.583,10.791,9.246
			c5.141-0.229,10.149-9.403,10.795-12.335c0.461-2.066-1.017-5.892,0-7.711c2.651-4.729,10.443-13.975,18.507-10.786
			c7.654,3.018,3.079,14.235,6.162,20.037c1.621,3.05,6.491,6.276,10.791,6.177c10.515-0.276,9.313-19.097,20.046-18.517
			c5.55,0.313,6.699,6.562,10.8,12.34c4.889,6.918,4.88,11.659,12.325,12.339c10.866,0.998,19.485-19.172,24.684-18.502
			c0.371,0.048,3.378,8.021,6.167,10.791c2.366,2.356,8.534,5.825,12.335,6.167c13.161,1.188,20.326-11.612,27.747-12.335
			c1.088-0.109,6.453,4.096,12.34,4.623c7.199,0.656,13.584-3.506,16.957-3.083c2.135,0.275,5.004,3.316,7.708,4.628
			C308.477,177.583,319.514,175.749,319.86,165.686z M450.924,359.968c-6.318-9.142-10.687-16.202-15.429-26.214
			c-3.496-7.388-8.404-15.912-7.701-24.669c0.355-4.435,4.751-8.806,6.162-13.884c2.048-7.352,1.026-19.609-1.539-26.215
			c-1.545-3.971-8.244-10.055-13.874-16.954c-7.788-9.55-11.627-16.325-20.047-20.051c-8.984-3.972-18.749-3.981-29.297-1.539
			c-20.032,4.646-43.024,31.093-38.548,64.759c1.083,8.162,4.897,8.558,4.623,16.963c-0.187,5.811-6.034,20.578-7.707,26.213
			c-1.729,5.825-3.207,11.907-4.623,16.963c-3.953,14.061-19.737,44.283-1.544,44.711c6.66,0.156,9.964-10.951,13.874-9.246
			c-0.258-0.119,0.821,5.416,1.544,7.707c2.312,7.299,6.109,16.9,15.423,15.413c6.457-1.017,9.385-9.151,10.791-15.413
			c0.77-3.46-0.675-12.05,0-18.503c1.153-11.185,5.094-19.489,7.711-30.836c2.066-9.009,3.27-20.112,6.163-21.591
			c2.171-1.107,13.352-0.305,13.874,0c0.266,0.152,3.302,8.082,4.628,12.34c2.186,6.975,4.428,13.926,6.172,18.497
			c3.668,9.616,6.643,17.476,9.256,24.669c1.587,4.391,2.852,5.526,3.079,6.172c3.577,10.102,4.19,24.229,12.33,29.303
			c2.504,1.549,3.635,2.5,7.711,1.535c6.163-1.449,6.785-6.672,7.712-12.341c0.066-0.389-1.302-10.558,1.539-12.329
			c0.613-0.385,6.306,5.155,7.717,6.162c1.957,1.406,1.62,1.91,4.623,3.09c8.196,3.217,15.841-1.303,16.957-10.791
			c0.88-7.418-5.364-14.521-10.79-21.586C457.651,367.009,453.793,364.125,450.924,359.968z M412.375,289.034
			c-0.846,3.823-2.66,4.489-6.172,7.711c-4.466,4.104-8.457,7.944-16.962,9.247c-23.562,3.619-38.32-2.87-35.46-27.749
			c1.528-13.353,8.557-24.543,20.046-27.755c11.67-3.264,15.675-1.007,23.13,6.167C403.31,262.771,415.126,276.552,412.375,289.034z
			 M429.338,372.303c-4.006-0.376-5.46-8.742-6.167-13.884c0.144,1.063-2.134-3.431-1.55-3.079c1.245,0.723,3.991,3.578,6.173,7.697
			c0.39,0.76,3.05,4.414,3.078,4.638C431.015,368.668,429.565,372.32,429.338,372.303z M270.518,259.744
			c-4.209-1.146-8.291,1.273-12.33,0c-2.931-0.922-4.827-3.34-7.72-4.628c-11.955-5.364-13.58,0.033-26.204,1.538
			c-4.547,0.543-10.69-1.092-15.418,0c-6.22,1.437-11.594,7.516-15.428,7.715c-1.344,0.066-4.661-3.637-10.79-4.625
			c-3.782-0.618-10.111-0.746-13.879,0c-2.1,0.402-3.064,2.324-4.614,3.076c-9.441,4.58-8.99-3.104-16.967-7.704
			c-10.791-6.233-19.058-2.903-32.376-3.084c-9.052-0.128-14.568-1.192-20.051,0c-8.158,1.768-8.605-0.423-12.33-3.083
			c-4.932-3.517-6.928-3.155-10.795-1.549c-5.807,2.423-7.398,3.962-6.172,10.795c0.066,0.332,10.553-0.353,10.8,0
			c3.208,4.652-1.535,2.07-3.088,6.174c-4.02,10.605,3.83,30.361,13.884,24.665c7.645-4.339-2.357-18.812,7.702-21.586
			c6.338-1.748,4.5,4.229,7.707,7.717c6.105,6.59,11.403,7.401,16.972,1.539c3.103-3.288,2.49-5.369,6.163-6.167
			c11.137-2.452,14.981,3.533,16.953,9.246c2.034,5.835-2.247,11.342-1.53,16.962c0.452,3.583,2.751,9.456,4.628,10.786
			c-0.252-0.166,5.265,3.055,10.791,1.554c10.933-2.979,5.165-18.063,7.711-23.135c1.302-2.623,5.745-5.626,10.786-6.167
			c9.816-1.051,8.063,7.916,18.497,7.711c7.156-0.139,10.306-8.473,20.056-10.79c1.188-0.285,2.87,1.282,4.614,1.539
			c9.745,1.426,17.405-4.875,21.59-4.628c3.796,0.229,9.085,5.598,10.791,6.168c4.048,1.367,9.977,1.188,15.421,1.539
			c7.16,0.476,13.271,1.791,15.424-4.618C283.802,269.292,274.532,260.827,270.518,259.744z M381.534,262.82
			c-2.319,0.236-3.084,0.836-4.628,1.549c-4.157,1.92-10.733,3.849-12.33,6.168c-6.248,9.037-0.983,28.556,10.79,29.287
			c7.831,0.499,12.813-7.469,15.414-12.33c3.326-6.2,7.935-17.404,3.084-23.125C390.543,260.434,387.986,262.165,381.534,262.82z
			 M245.849,322.954c-4.809-1.368-15.547,2.661-21.586,3.089c-18.483,1.292-49.994,2.965-70.929-1.54
			c-9.703-2.091-16.35-7.621-26.213-7.711c-13.442-0.129-22.113,8.86-32.381,7.711c-10.543-1.188-12.002-13.18-23.125-7.711
			c-4.105,2.022-5.892,2.095-4.628,7.711c1.701,7.563,2.442-1.265,6.167,3.079c1.126,1.312,0.304,3.486,1.54,4.628
			c4.837,4.457,10.548,8.462,15.418,9.256c15.048,2.429,20.293-8.03,37.009-7.712c7.032,0.139,11.66,4.405,18.511,6.168
			c6.524,1.667,14.397,2.542,21.585,3.078c12.14,0.917,29.136,0,46.255,0c20.541,0.005,39.128,1.164,41.623-6.172
			C256.79,331.877,253.062,325.025,245.849,322.954z M216.557,355.34c-24.379,0.898-54.076,0-84.808,0
			c-17.195,0.006-76.185-4.979-64.762,15.413c4.566,8.136,6.728,1.787,12.334,1.55c5.796-0.267,12.463-0.246,20.042,0
			c22.75,0.723,76.493,1.188,104.858,0c16.587-0.699,40.487,3.297,38.544-10.796C241.126,349.671,225.679,354.998,216.557,355.34z
			 M122.493,393.889c-4.485-0.328-11.351-5.271-18.497-6.162c-3.801-0.49-7.617,1.695-12.34,1.533c-6.077-0.214-6.058-2.408-9.246,0
			c-0.323,0.242-1.23-0.252-1.544,0c-7.84,6.344,0.156,16.893,4.623,18.497c4.694,1.692,9.75-3.297,16.958-3.077
			c3.815,0.112,8.505,3.828,13.879,4.631c12.164,1.793,23.453-1.941,29.307-4.631c6.329-2.918,9.845-3.44,9.251-7.713
			C153.187,384.908,128.1,394.287,122.493,393.889z"/>
	</g>
</g>
</svg>
